<?xml version="1.0" encoding="iso-8859-1"?>
<!-- Generator: Adobe Illustrator 17.1.0, SVG Export Plug-In . SVG Version: 6.00 Build 0)  -->
<!DOCTYPE svg PUBLIC "-//W3C//DTD SVG 1.1//EN" "http://www.w3.org/Graphics/SVG/1.1/DTD/svg11.dtd">
<svg version="1.1" id="Capa_1" xmlns="http://www.w3.org/2000/svg" xmlns:xlink="http://www.w3.org/1999/xlink" x="0px" y="0px"
	 viewBox="0 0 492.322 492.322" style="enable-background:new 0 0 492.322 492.322;" xml:space="preserve">
<path d="M228.819,235.733c-1.388-2.388-0.576-5.448,1.811-6.836l171.188-99.482c2.39-1.388,5.448-0.576,6.836,1.811
	c1.388,2.388,0.576,5.448-1.811,6.836l-171.188,99.482c-0.791,0.459-1.655,0.678-2.508,0.678
	C231.424,238.221,229.748,237.329,228.819,235.733z M233.147,264.911c0.853,0,1.717-0.219,2.508-0.678l171.188-99.483
	c2.387-1.388,3.198-4.448,1.811-6.836c-1.388-2.387-4.446-3.199-6.836-1.811L230.63,255.587c-2.387,1.388-3.198,4.448-1.811,6.836
	C229.748,264.02,231.424,264.911,233.147,264.911z M227.022,96.675l62.878,36.303c0.787,0.455,1.647,0.671,2.495,0.671
	c1.729,0,3.409-0.897,4.335-2.501c1.381-2.392,0.562-5.449-1.83-6.83l-62.878-36.303c-2.394-1.384-5.451-0.561-6.83,1.83
	C223.812,92.237,224.631,95.294,227.022,96.675z M240.082,71.995l99.748,57.59c0.787,0.455,1.647,0.671,2.495,0.671
	c1.729,0,3.409-0.897,4.335-2.501c1.381-2.392,0.562-5.449-1.83-6.83l-99.748-57.59c-2.393-1.385-5.451-0.561-6.83,1.83
	C236.871,67.557,237.69,70.615,240.082,71.995z M157.809,398.45L28.973,324.067c-2.393-1.384-5.45-0.561-6.83,1.83
	c-1.381,2.392-0.562,5.449,1.83,6.83l128.836,74.383c0.787,0.455,1.647,0.671,2.495,0.671c1.729,0,3.409-0.897,4.335-2.501
	C161.02,402.888,160.2,399.83,157.809,398.45z M157.809,424.423L28.973,350.039c-2.393-1.384-5.45-0.561-6.83,1.83
	c-1.381,2.392-0.562,5.449,1.83,6.83l128.836,74.384c0.787,0.455,1.647,0.671,2.495,0.671c1.729,0,3.409-0.897,4.335-2.501
	C161.02,428.862,160.2,425.804,157.809,424.423z M492.322,221.978c0,0,0,0.002,0,0.003v48.184c0,1.781-0.947,3.428-2.487,4.323
	l-79.012,45.917v12.3c0,1.781-0.947,3.428-2.487,4.323L179.065,470.265c-0.159,0.092-0.324,0.169-0.49,0.242
	c-0.033,0.015-0.063,0.034-0.097,0.048c-0.265,0.111-0.538,0.19-0.815,0.253c-0.074,0.017-0.148,0.031-0.224,0.044
	c-0.294,0.053-0.59,0.089-0.888,0.089c-0.297,0-0.593-0.036-0.887-0.089c-0.075-0.014-0.15-0.027-0.224-0.044
	c-0.275-0.063-0.547-0.142-0.81-0.251c-0.041-0.017-0.077-0.04-0.118-0.058c-0.156-0.07-0.312-0.141-0.462-0.227L2.5,371.226
	c-1.547-0.894-2.5-2.544-2.5-4.33v-78.462c0-0.004,0.001-0.008,0.001-0.008c0.001-0.302,0.036-0.594,0.088-0.882
	c0.014-0.075,0.028-0.149,0.044-0.223c0.063-0.278,0.143-0.551,0.252-0.813c0.014-0.034,0.033-0.064,0.048-0.098
	c0.103-0.232,0.225-0.453,0.362-0.667c0.041-0.063,0.081-0.125,0.124-0.187c0.162-0.231,0.339-0.452,0.539-0.654
	c0.011-0.011,0.023-0.019,0.034-0.03c0.191-0.188,0.401-0.356,0.622-0.513c0.063-0.045,0.127-0.088,0.193-0.13
	c0.061-0.039,0.116-0.084,0.179-0.121l91.624-53.246l-8.444-4.875l-6.16-3.557c-17.972-10.375-29.136-29.712-29.136-50.464
	c0-10.453,5.404-19.813,14.457-25.04c0.574-0.331,1.155-0.641,1.742-0.93L271.771,26.257c11.089-6.472,24.886-6.505,36.006-0.083
	l118.807,68.593c0.065,0.038,0.123,0.084,0.185,0.124c0.068,0.043,0.134,0.087,0.2,0.134c0.227,0.161,0.443,0.333,0.638,0.526
	c0.005,0.005,0.01,0.008,0.015,0.013c0.201,0.201,0.376,0.423,0.539,0.653c0.044,0.063,0.086,0.126,0.127,0.191
	c0.138,0.216,0.262,0.44,0.366,0.675c0.013,0.03,0.03,0.056,0.043,0.086c0.109,0.26,0.188,0.533,0.251,0.81
	c0.017,0.076,0.032,0.152,0.046,0.229c0.052,0.289,0.089,0.583,0.09,0.883c0,0.001,0,0.003,0,0.003l0,0.004v72.176
	c0,1.781-0.947,3.428-2.487,4.323l-4.792,2.785l68.018,39.27c0.065,0.038,0.123,0.084,0.185,0.124
	c0.068,0.043,0.134,0.087,0.2,0.134c0.227,0.161,0.443,0.333,0.638,0.526c0.005,0.005,0.01,0.008,0.015,0.013
	c0.201,0.201,0.376,0.423,0.539,0.653c0.044,0.063,0.086,0.126,0.127,0.191c0.138,0.216,0.262,0.44,0.366,0.675
	c0.013,0.03,0.03,0.056,0.043,0.086c0.109,0.26,0.188,0.533,0.251,0.81c0.017,0.076,0.032,0.152,0.046,0.229
	c0.052,0.289,0.089,0.583,0.09,0.883L492.322,221.978z M411.837,184.173l-17.631,10.246l38.942,22.303
	c1.563,0.896,2.523,2.563,2.515,4.363c-0.009,1.802-0.986,3.459-2.559,4.339l-59.421,33.252c-0.759,0.425-1.6,0.637-2.441,0.637
	c-0.857,0-1.716-0.221-2.485-0.661l-42.85-24.541L215.693,298.16c-0.159,0.092-0.324,0.169-0.49,0.242
	c-0.033,0.015-0.063,0.034-0.097,0.048c-0.265,0.111-0.538,0.19-0.815,0.253c-0.074,0.017-0.148,0.031-0.224,0.044
	c-0.294,0.053-0.59,0.089-0.888,0.089c-0.297,0-0.593-0.036-0.887-0.089c-0.075-0.014-0.15-0.027-0.224-0.044
	c-0.275-0.063-0.547-0.142-0.81-0.251c-0.041-0.017-0.077-0.04-0.118-0.058c-0.156-0.07-0.312-0.141-0.462-0.227l-71.965-41.549
	l-16.061,9.333l139.983,80.819l214.708-124.774L411.837,184.173z M112.672,260.186l16.061-9.333l-8.164-4.714l-16.06,9.333
	L112.672,260.186z M335.894,228.306l35.376,20.261l49.244-27.557l-36.296-20.787L335.894,228.306z M88.744,144.637
	c1.708,0.6,3.382,1.359,4.999,2.292l27.801,16.051c0.444,0.256,0.814,0.585,1.146,0.942l90.476,51.963L414.107,99.111
	L302.776,34.834c-8.018-4.629-17.968-4.606-25.966,0.06L88.744,144.637z M84.507,213.773l0.326,0.188
	c-0.3-0.648-0.47-1.358-0.47-2.095v-9.557l-11.738-6.776c-2.392-1.381-3.211-4.438-1.83-6.83c1.38-2.391,4.434-3.214,6.83-1.83
	l6.738,3.89v-12.345l-11.738-6.777c-2.392-1.381-3.211-4.438-1.83-6.83c1.38-2.391,4.437-3.214,6.83-1.83l118.514,68.424
	c2.392,1.381,3.211,4.438,1.83,6.83c-0.926,1.604-2.606,2.501-4.335,2.501c-0.848,0-1.708-0.216-2.495-0.671l-81.726-47.184v12.346
	l86.726,50.071c2.392,1.381,3.211,4.438,1.83,6.83c-0.926,1.604-2.606,2.501-4.335,2.501c-0.848,0-1.708-0.216-2.495-0.671
	l-81.726-47.184v4.887c0,2.016-1.212,3.801-3.024,4.582c0.475,0.225,0.904,0.54,1.294,0.911l100.499,58.023v-3.253
	c0-2.762,2.238-5,5-5s5,2.238,5,5v3.226l200.902-116.752v-60.61L218.181,224.537v33.545c0,2.762-2.238,5-5,5s-5-2.238-5-5v-33.528
	L98.97,161.831c-0.5-0.287-0.913-0.659-1.27-1.071l-8.956-5.171c-5.922-3.42-12.993-3.42-18.915,0
	c-5.922,3.419-9.457,9.542-9.457,16.38C60.371,189.16,69.619,205.178,84.507,213.773z M94.362,184.191v19.29
	c1.717-0.702,3.655-0.382,5.05,0.755v-17.13L94.362,184.191z M98.792,222.021l-4.353-7.227l-2.685,1.463
	c-0.609,0.331-1.269,0.522-1.937,0.583l0.849,0.49L98.792,222.021z M14.976,288.42l161.569,93.281l21.5-12.495L92.032,308
	c-1.547-0.894-2.5-2.544-2.5-4.33v-33.824l-41.847,24.319c-0.791,0.459-1.655,0.678-2.508,0.678c-1.724,0-3.399-0.892-4.328-2.488
	c-1.388-2.388-0.576-5.448,1.811-6.836l46.872-27.239v-2.792l0.001-0.012c0.001-0.298,0.036-0.59,0.088-0.877
	c0.014-0.075,0.028-0.149,0.044-0.223c0.063-0.278,0.143-0.551,0.252-0.813c0.014-0.034,0.033-0.064,0.048-0.098
	c0.103-0.232,0.225-0.453,0.362-0.667c0.041-0.063,0.081-0.125,0.124-0.187c0.162-0.231,0.339-0.452,0.539-0.654
	c0.011-0.011,0.023-0.019,0.034-0.03c0.191-0.188,0.401-0.356,0.622-0.513c0.063-0.045,0.127-0.088,0.193-0.13
	c0.061-0.039,0.116-0.084,0.179-0.121l18.565-10.788l-6.489-3.746L14.976,288.42z M400.823,326.216l-135.664,78.839
	c-0.159,0.092-0.324,0.169-0.49,0.242c-0.033,0.015-0.063,0.034-0.097,0.048c-0.265,0.111-0.538,0.19-0.815,0.253
	c-0.074,0.017-0.148,0.031-0.224,0.044c-0.294,0.053-0.59,0.089-0.888,0.089c-0.297,0-0.593-0.036-0.887-0.089
	c-0.075-0.014-0.15-0.027-0.224-0.044c-0.275-0.063-0.547-0.142-0.81-0.251c-0.041-0.017-0.077-0.04-0.118-0.058
	c-0.156-0.07-0.312-0.141-0.462-0.227l-5.972-3.448c-0.42,0.697-0.995,1.312-1.748,1.75l-51.66,30.021
	c-0.791,0.459-1.655,0.678-2.508,0.678c-1.724,0-3.399-0.892-4.328-2.488c-1.388-2.388-0.576-5.448,1.811-6.836l49.082-28.523
	l-14.69-8.481l-29.415,16.664c-0.778,0.44-1.625,0.65-2.46,0.65c-1.742,0-3.436-0.912-4.355-2.536
	c-1.361-2.403-0.517-5.454,1.886-6.815l24.297-13.764l-12.057-6.961l-26.476,15.386v36.717c0,2.762-2.238,5-5,5s-5-2.238-5-5
	v-36.708L10,297.094v66.915l161.553,93.272v-4.291c0-2.762,2.238-5,5-5s5,2.238,5,5v4.263l219.271-127.426V326.216z
	 M482.322,267.287V230.67L267.646,355.426v13.721c0,2.762-2.238,5-5,5s-5-2.238-5-5v-13.712l-147.381-85.091
	c-0.035-0.019-0.07-0.04-0.104-0.06l-10.629-6.137v36.637l158.114,91.288v-2.387c0-2.762,2.238-5,5-5s5,2.238,5,5v2.359
	L482.322,267.287z M244.328,363.211l-126.254-72.893c-2.394-1.384-5.45-0.561-6.83,1.83c-1.381,2.392-0.562,5.449,1.83,6.83
	l126.254,72.893c0.787,0.455,1.647,0.671,2.495,0.671c1.729,0,3.409-0.897,4.335-2.501
	C247.539,367.65,246.72,364.592,244.328,363.211z M463.768,254.561L281.4,360.54c-2.387,1.388-3.198,4.448-1.811,6.836
	c0.929,1.597,2.604,2.488,4.328,2.488c0.853,0,1.717-0.219,2.508-0.678l182.367-105.979c2.387-1.388,3.198-4.448,1.811-6.836
	C469.215,253.985,466.157,253.173,463.768,254.561z"/>
<g>
</g>
<g>
</g>
<g>
</g>
<g>
</g>
<g>
</g>
<g>
</g>
<g>
</g>
<g>
</g>
<g>
</g>
<g>
</g>
<g>
</g>
<g>
</g>
<g>
</g>
<g>
</g>
<g>
</g>
</svg>
